<?xml version="1.0" encoding="utf-8"?>
<svg fill="#BDA979" version="1.1" xmlns="http://www.w3.org/2000/svg" xmlns:xlink="http://www.w3.org/1999/xlink" x="0px" y="0px" viewBox="0 0 24 30" style="enable-background:new 0 0 24 30;" xml:space="preserve">
  <polygon points="14,6 12,3 10,6 12,12.1" />
  <path d="M9,8L8,7C6,8,5,8,4,7.2C3.6,6.9,3.2,6.5,3,6H0l6,5C6.6,9.7,7.7,8.6,9,8z" />
  <path d="M20.8,13.1L22,10l-6,3.9l1,1.1v1l-4-2l2.2,3.8c-0.7,0.5-1.4,0.9-2.2,1.2l-1,7l-1-7c-0.7-0.2-1.4-0.6-2-1l2-4l-4,2v-1l1-1.1 L2,10l1,3c1.2,0.5,2.1,1.7,2,3l1,1H4l-1,2l2,1l2-1c0.4,0.4,0.8,0.2,2,1l2,8l1,2l1-2l2-8c1.2-0.8,1.6-0.6,2-1l2,1l2-1l-1-2h-1.6 l0.6-1C19,14.8,19.7,13.7,20.8,13.1z" />
  <path d="M18,11l6-5h-3c-0.2,0.5-0.6,0.9-1,1.2C19,8,18,8,16,6.4L15,8C16.3,8.6,17.4,9.7,18,11z" />
</svg>
