<?xml version="1.0" encoding="utf-8"?>
<svg fill="#D84444" version="1.1" xmlns="http://www.w3.org/2000/svg" xmlns:xlink="http://www.w3.org/1999/xlink" x="0px" y="0px" viewBox="0 0 24 30" style="enable-background:new 0 0 24 30;" xml:space="preserve">
  <path d="M15,15.9c0,0-2-1.1-2-1.9c-0.1-0.4,0.2-0.9,0.7-0.9c0.1,0,0.2,0,0.3,0c0.7,0.1,1.4,0.5,2,0.9c-2.9-9.3-4-13-4-13 c-0.5,2.4-1.5,4.6-3,6.5c0,0,2-0.7,2,0.9c0.1,1.3-0.8,2.5-2,2.8L8,14c0.6-0.5,1.3-0.8,2-0.9c0.9,0,1,0.1,1,0.9c0,1.6-2,1.9-2,1.9 c0.1,0.8-0.1,1.6-0.4,2.4c1.4,1.2,2.5,2.6,3.4,4.1c0.9-1.6,2-3.1,3.4-4.3C14.8,16.6,15,17.2,15,15.9z M2,25.1l1-1.9 c-1.2-1.4-2.2-3-3-4.6v-2.8c1.7,0,2.7-2.7,1-2.8c1.7-2.4,3.1-3.2,4-5.6v3.7c-0.8,1.5-1.4,3.1-2,4.6c0,1.6,0,4.1,2,4.6 c2.1,0.6,2-1.9,2-1.9C9.5,20,11,24,11,24v3l-1-0.9c0,0-0.9-3.6-2-3.7c-0.5,0-0.9,0.4-1,0.9c0.2,0.7,0.5,1.3,1,1.9 c0.5,0.5,0.5,1.3,0,1.9c-2.5-2.3-2.8-1.9-3.6-1.9S2,25.1,2,25.1z M22,25.1l-1-1.9c1.2-1.4,2.2-3,3-4.6v-2.8c-1.7,0-2.7-2.7-1-2.8 c-1.7-2.4-3.1-3.2-4-5.6v3.7c0.8,1.5,1.4,3.1,2,4.6c0,1.6,0,4.1-2,4.6c-2.1,0.6-2-1.9-2-1.9C14.5,20,13,24,13,24v3l1-0.9 c0,0,0.9-3.6,2-3.7c0.5,0,0.9,0.4,1,0.9c-0.2,0.7-0.5,1.3-1,1.9c-0.5,0.5-0.5,1.3,0,1.9c2.5-2.3,2.8-1.9,3.6-1.9S22,25.1,22,25.1z" />
</svg>
