<?xml version="1.0" encoding="utf-8"?>
<svg fill="#949EFB" version="1.1" xmlns="http://www.w3.org/2000/svg" xmlns:xlink="http://www.w3.org/1999/xlink" x="0px" y="0px" viewBox="0 0 24 30" style="enable-background:new 0 0 24 30;" xml:space="preserve">
  <path d="M12.5,2.6c-0.3,0-1,0-1,0c-0.7,1.2-1.4,3.6-2,4l1,2c0,0,1.9,0.2,3,3c0,0,0-0.7,1,2h5l1-1c-1.8-0.7-3.5-1.7-5-3 c-1-1.1-1.4-2.6-1-4l-1.2-1L12.5,2.6z M14.5,15.6l2,1c0,0-0.3,0.2,4,1l1-1l-2-1H14.5z M14.5,17.6c0.7,0.3,1.4,0.6,2,1 c0.9,0.7,1.9,1,3,1l-2,2c-0.8,0-1.5,0.3-2,1v1c-0.9-0.8-2.8-0.6-2-4C13.8,18.9,14.1,18.2,14.5,17.6z M3.5,10.6l2,2 c1.2,0.2,2.3,0.9,3,2v1l-3-1l-2-1V10.6z M6.5,8.6v2l4,2c0,0,0.1-0.3-1-2c-0.5-0.8-1.2-1.4-2-2H6.5z M3.5,17.6c-0.1-0.3-0.1-0.7,0-1 c0.2,0,5.8,1.8,6,2l2,2c0,0-0.6,2.7,3,5l-2,3l-3-2c0.1-2.4-1.6-4.6-4-5C5.5,20,4.8,18.6,3.5,17.6z" />
</svg>
