<?xml version="1.0" encoding="utf-8"?>
<svg fill="#49B0BC" version="1.1" xmlns="http://www.w3.org/2000/svg" xmlns:xlink="http://www.w3.org/1999/xlink" x="0px" y="0px" viewBox="0 0 24 30" style="enable-background:new 0 0 24 30;" xml:space="preserve">
	<path d="M15,21c-3.8,0-6.1-3.7-7-5l2-2c0.8,1.4,1.8,2.8,3,4c1,1,5,2,5,2C17.1,20.7,16.1,21,15,21z M18,27 c-1.1-0.2-2.1-0.5-3-1c-0.9,0.5-1.9,0.8-3,1c-3.2,0.1-6.2-1.4-8-4v-5c0.5,1.1,1.2,2.1,2,3v1c1.5,1.7,3.7,2.7,6,2.9 c0,0-6.6-4.8-9-11.9c0-0.1-1,2-1,7c-0.5-1.6-0.8-3.3-1-5c-0.1-1.4,0.2-2.8,1-4V8c0-3,2-5,4-5h4C9.2,3.1,8.5,3.5,8,4H5 C4.2,4,3,5.2,3,8c0.1,1.8,0.7,3.6,1.8,5.1L5,13c0.7-1.5,2.9-5.4,6-7l0,0C7.7,6,5,9,5,9L4,8c2-2.4,4.9-3.9,8-4c1.4,0.1,2.7,0.4,4,1 c-1,0.2-2,0.5-3,1c0,0,2.8,1.1,6,6c2.7,4.1-1,6-1,6c0.8-2,0.4-4.3-1-6c-1.5-1.8-3.2-3.5-5-5c-2.8,2.4-4.9,5.5-6,9c0,0,7,10,13,10 c0.7,0,2.7-0.2,2.7-3.2c-0.1-0.5-0.2-1-0.4-1.5c0,0-1.3,2.7-3.3,2.7c-0.4-0.2-2-1-2-1s5.7-1.9,5.7-7.7c0-5-5.1-8.7-5.1-8.7l0.9-0.9 c0,0,5.5,3.7,5.5,9.2c0.1,1.4-0.1,2.8-0.5,4.1c0.4,1,0.6,2.1,0.5,3.3C23,27,18.9,27,18,27z M16,18c-3-5-5-6-5-6l1-1c0,0,3,1,5,6 L16,18z" />
</svg>
